# xmcd
#
# Track frame offsets: 
#        150
#        17965
#        36726
#        54662
#        71048
#        88053
#        103519
#        120037
#        144314
#        159454
#        176895
#        196861
#        214389
#        238178
#        254285
#
# Disc length: 3981 seconds
#
# Revision: 0
# Processed by: cddbd v1.5.2PL0 Copyright (c) Steve Scherf et al.
# Submitted via: ExactAudioCopy v0.95b4
#
DISCID=db0f8b0f
DTITLE=Bengt Johansson - 50 Sånger (Nytolkningar)
DYEAR=2009
DGENRE=Country
TTITLE0=Alltid vara din
TTITLE1=Du är kärlek
TTITLE2=Balladen om Lille Nilsson
TTITLE3=Du ger oss rum
TTITLE4=Bilden av dig
TTITLE5=Smaka och se
TTITLE6=Väntar på regn
TTITLE7=Men din nåd varar
TTITLE8=Lovsångsblues
TTITLE9=Glädjetåg
TTITLE10=Vila i vinden
TTITLE11=I vindens riktning
TTITLE12=Kom till oss
TTITLE13=Bara i dig
TTITLE14=Dagar
EXTD=
EXTT0=
EXTT1=
EXTT2=
EXTT3=
EXTT4=
EXTT5=
EXTT6=
EXTT7=
EXTT8=
EXTT9=
EXTT10=
EXTT11=
EXTT12=
EXTT13=
EXTT14=
PLAYORDER=
